<svg width="595" height="293" xmlns="http://www.w3.org/2000/svg">
 <!-- Created with Method Draw - http://github.com/duopixel/Method-Draw/ -->
 <g>
  <title>background</title>
  <rect fill="none" id="canvas_background" height="295" width="597" y="-1" x="-1"/>
 </g>
 <g>
  <title>Layer 1</title>
  <line stroke-linecap="null" stroke-linejoin="null" id="svg_1" y2="168" x2="152" y1="89" x1="80" fill-opacity="null" stroke-opacity="null" stroke-width="null" stroke="null" fill="none"/>
  <line stroke-linecap="null" stroke-linejoin="null" id="svg_4" y2="50" x2="78" y1="170" x1="71" fill-opacity="null" stroke-opacity="null" stroke-width="null" stroke="null" fill="none"/>
  <line stroke="null" stroke-linecap="null" stroke-linejoin="null" id="svg_6" y2="93" x2="214" y1="93" x1="213" fill-opacity="null" stroke-opacity="null" stroke-width="null" fill="none"/>
  <line stroke-linecap="null" stroke-linejoin="null" id="svg_8" y2="70" x2="106" y1="177" x1="92" fill-opacity="null" stroke-opacity="null" stroke-width="null" stroke="null" fill="none"/>
  <path id="svg_10" d="m62,192l0,-34c0,0 89,-94 0,34z" fill-opacity="null" stroke-opacity="null" stroke-width="null" stroke="null" fill="none"/>
  <path id="svg_11" d="m56,228c14,-87 33,8 33,8c0,0 60,-73 60,-73c0,0 -79,50 -79,51c0,1 74,5 74,4" fill-opacity="null" stroke-opacity="null" stroke-width="null" stroke="null" fill="none"/>
  <text font-style="normal" font-weight="normal" opacity="0.6" xml:space="preserve" text-anchor="start" font-family="'Calistoga'" font-size="84" id="svg_13" y="97" x="55" stroke-opacity="null" stroke-width="0" stroke="null" fill="#d81313">ALBASHEER</text>
  <text font-style="normal" font-weight="normal" transform="rotate(-0.8975821137428284 478.2656250000002,113.4999999999988) " xml:space="preserve" text-anchor="start" font-family="'Anton'" font-size="29" id="svg_14" y="125" x="431" stroke-opacity="null" stroke-width="0" stroke="null" fill="#000000">RENTCAR</text>
 </g>
</svg>